<?xml version="1.0" encoding="UTF-8" standalone="no"?><!DOCTYPE svg PUBLIC "-//W3C//DTD SVG 1.1//EN" "http://www.w3.org/Graphics/SVG/1.1/DTD/svg11.dtd"><!-- Generated by graphviz version 2.38.0 (20140413.2041) --><!-- Title: G Pages: 1 --><svg width="787pt" height="233pt" viewBox="0.00 0.00 786.50 233.00" xmlns="http://www.w3.org/2000/svg" xmlns:xlink="http://www.w3.org/1999/xlink"><g id="graph0" class="graph" transform="scale(1 1) rotate(0) translate(4 229)"><title>G</title><polygon fill="white" stroke="none" points="-4,4 -4,-229 782.5,-229 782.5,4 -4,4"/><!-- Lodgement --><g id="node1" class="node"><title>Lodgement</title><polygon fill="#ed6a5a" stroke="none" points="219,-205.5 219,-220.5 534,-220.5 534,-205.5 219,-205.5"/><polygon fill="none" stroke="#ed6a5a" points="219,-205.5 219,-220.5 534,-220.5 534,-205.5 219,-205.5"/><text text-anchor="start" x="356" y="-211.1" font-family="Courier,monospace" font-size="8.00" fill="white">Lodgement</text><polygon fill="#dddddd" stroke="none" points="219,-169.5 219,-205.5 534,-205.5 534,-169.5 219,-169.5"/><polygon fill="none" stroke="#dddddd" points="219,-169.5 219,-205.5 534,-205.5 534,-169.5 219,-169.5"/><text text-anchor="start" x="222" y="-198.7" font-family="Courier,monospace" font-weight="bold" font-size="6.00" fill="#8b0000"> &#45; </text><text text-anchor="start" x="234" y="-198.7" font-family="Courier,monospace" font-weight="bold" font-size="6.00">IdentifiersAustralianBusinessNumberIdentifier</text><text text-anchor="start" x="403" y="-198.7" font-family="Courier,monospace" font-weight="bold" font-size="6.00"> &#160;: string &#160;&#160;&#160;&#160;&#160;&#160;&#160;&#160;&#160;&#160;&#160;&#160;&#160;&#160;&#160;&#160;&#160;&#160;&#160;&#160;&#160;&#160;&#160;</text><text text-anchor="start" x="222" y="-192.7" font-family="Courier,monospace" font-weight="bold" font-size="6.00" fill="#8b0000"> &#45; </text><text text-anchor="start" x="234" y="-192.7" font-family="Courier,monospace" font-weight="bold" font-size="6.00">ReportingConsolidationBasisDimension &#160;&#160;&#160;&#160;&#160;&#160;&#160;&#160;</text><text text-anchor="start" x="403" y="-192.7" font-family="Courier,monospace" font-weight="bold" font-size="6.00"> &#160;: string &#160;&#160;&#160;&#160;&#160;&#160;&#160;&#160;&#160;&#160;&#160;&#160;&#160;&#160;&#160;&#160;&#160;&#160;&#160;&#160;&#160;&#160;&#160;</text><text text-anchor="start" x="222" y="-186.7" font-family="Courier,monospace" font-size="6.00" fill="#8b0000"> &#45; </text><text text-anchor="start" x="234" y="-186.7" font-family="Courier,monospace" font-size="6.00">newApplicationsForHousingLoans &#160;&#160;&#160;&#160;&#160;&#160;&#160;&#160;&#160;&#160;&#160;&#160;&#160;&#160;</text><text text-anchor="start" x="403" y="-186.7" font-family="Courier,monospace" font-weight="bold" font-size="6.00"> &#160;: NewLoan[] &#160;&#160;&#160;&#160;&#160;&#160;&#160;&#160;&#160;&#160;&#160;&#160;&#160;&#160;&#160;&#160;&#160;&#160;&#160;&#160;</text><text text-anchor="start" x="222" y="-180.7" font-family="Courier,monospace" font-size="6.00" fill="#8b0000"> &#45; </text><text text-anchor="start" x="234" y="-180.7" font-family="Courier,monospace" font-size="6.00">newBorrowerAcceptedCommitments &#160;&#160;&#160;&#160;&#160;&#160;&#160;&#160;&#160;&#160;&#160;&#160;&#160;&#160;</text><text text-anchor="start" x="403" y="-180.7" font-family="Courier,monospace" font-weight="bold" font-size="6.00"> &#160;: BorrowerCommitments[] &#160;&#160;&#160;&#160;&#160;&#160;&#160;&#160;</text><text text-anchor="start" x="222" y="-174.7" font-family="Courier,monospace" font-size="6.00" fill="#8b0000"> &#45; </text><text text-anchor="start" x="234" y="-174.7" font-family="Courier,monospace" font-size="6.00">firstHomeNewBorrowerAcceptedCommitments &#160;&#160;&#160;&#160;&#160;</text><text text-anchor="start" x="403" y="-174.7" font-family="Courier,monospace" font-weight="bold" font-size="6.00"> &#160;: FirstHomeBorrowerCommitments[]</text></g><!-- NewLoan --><g id="node2" class="node"><title>NewLoan</title><polygon fill="#68afcb" stroke="none" points="8,-113.5 8,-128.5 192,-128.5 192,-113.5 8,-113.5"/><polygon fill="none" stroke="#68afcb" points="8,-113.5 8,-128.5 192,-128.5 192,-113.5 8,-113.5"/><text text-anchor="start" x="84" y="-119.1" font-family="Courier,monospace" font-size="8.00" fill="white">NewLoan</text><polygon fill="#dddddd" stroke="none" points="8,-77.5 8,-113.5 192,-113.5 192,-77.5 8,-77.5"/><polygon fill="none" stroke="#dddddd" points="8,-77.5 8,-113.5 192,-113.5 192,-77.5 8,-77.5"/><text text-anchor="start" x="11" y="-106.7" font-family="Courier,monospace" font-weight="bold" font-size="6.00" fill="#8b0000"> &#45; </text><text text-anchor="start" x="23" y="-106.7" font-family="Courier,monospace" font-weight="bold" font-size="6.00">ActivityStatusDimension &#160;</text><text text-anchor="start" x="117" y="-106.7" font-family="Courier,monospace" font-weight="bold" font-size="6.00"> &#160;: string &#160;&#160;&#160;&#160;&#160;&#160;&#160;&#160;</text><text text-anchor="start" x="11" y="-100.7" font-family="Courier,monospace" font-weight="bold" font-size="6.00" fill="#8b0000"> &#45; </text><text text-anchor="start" x="23" y="-100.7" font-family="Courier,monospace" font-weight="bold" font-size="6.00">ownerOccupiedOrInvestment</text><text text-anchor="start" x="117" y="-100.7" font-family="Courier,monospace" font-weight="bold" font-size="6.00"> &#160;: string &#160;&#160;&#160;&#160;&#160;&#160;&#160;&#160;</text><text text-anchor="start" x="11" y="-94.7" font-family="Courier,monospace" font-weight="bold" font-size="6.00" fill="#8b0000"> &#45; </text><text text-anchor="start" x="23" y="-94.7" font-family="Courier,monospace" font-weight="bold" font-size="6.00">residentOrNonResident &#160;&#160;&#160;</text><text text-anchor="start" x="117" y="-94.7" font-family="Courier,monospace" font-weight="bold" font-size="6.00"> &#160;: string &#160;&#160;&#160;&#160;&#160;&#160;&#160;&#160;</text><text text-anchor="start" x="11" y="-88.7" font-family="Courier,monospace" font-weight="bold" font-size="6.00" fill="#8b0000"> &#45; </text><text text-anchor="start" x="23" y="-88.7" font-family="Courier,monospace" font-weight="bold" font-size="6.00">fixedOrVariable &#160;&#160;&#160;&#160;&#160;&#160;&#160;&#160;&#160;</text><text text-anchor="start" x="117" y="-88.7" font-family="Courier,monospace" font-weight="bold" font-size="6.00"> &#160;: string &#160;&#160;&#160;&#160;&#160;&#160;&#160;&#160;</text><text text-anchor="start" x="11" y="-82.7" font-family="Courier,monospace" font-size="6.00" fill="#8b0000"> &#45; </text><text text-anchor="start" x="23" y="-82.7" font-family="Courier,monospace" font-size="6.00">loanApplicatoin &#160;&#160;&#160;&#160;&#160;&#160;&#160;&#160;&#160;</text><text text-anchor="start" x="117" y="-82.7" font-family="Courier,monospace" font-weight="bold" font-size="6.00"> &#160;: LoanApplication</text></g><!-- NewLoan&#45;&gt;Lodgement --><g id="edge1" class="edge"><title>NewLoan&#45;&gt;Lodgement</title><path fill="none" stroke="black" d="M187.707,-133.1C216.889,-142.616 249.547,-153.265 279.365,-162.989"/><polygon fill="black" stroke="black" points="279.394,-162.998 284.949,-161.444 288.521,-165.974 282.965,-167.528 279.394,-162.998"/></g><!-- BorrowerCommitments --><g id="node3" class="node"><title>BorrowerCommitments</title><polygon fill="#68afcb" stroke="none" points="271,-122.5 271,-137.5 482,-137.5 482,-122.5 271,-122.5"/><polygon fill="none" stroke="#68afcb" points="271,-122.5 271,-137.5 482,-137.5 482,-122.5 271,-122.5"/><text text-anchor="start" x="333.5" y="-128.1" font-family="Courier,monospace" font-size="8.00" fill="white">BorrowerCommitments</text><polygon fill="#dddddd" stroke="none" points="271,-68.5 271,-122.5 482,-122.5 482,-68.5 271,-68.5"/><polygon fill="none" stroke="#dddddd" points="271,-68.5 271,-122.5 482,-122.5 482,-68.5 271,-68.5"/><text text-anchor="start" x="274" y="-115.7" font-family="Courier,monospace" font-weight="bold" font-size="6.00" fill="#8b0000"> &#45; </text><text text-anchor="start" x="286" y="-115.7" font-family="Courier,monospace" font-weight="bold" font-size="6.00">ActivityStatusDimension &#160;&#160;&#160;&#160;&#160;&#160;&#160;&#160;</text><text text-anchor="start" x="407" y="-115.7" font-family="Courier,monospace" font-weight="bold" font-size="6.00"> &#160;: string &#160;&#160;&#160;&#160;&#160;&#160;&#160;&#160;</text><text text-anchor="start" x="274" y="-109.7" font-family="Courier,monospace" font-weight="bold" font-size="6.00" fill="#8b0000"> &#45; </text><text text-anchor="start" x="286" y="-109.7" font-family="Courier,monospace" font-weight="bold" font-size="6.00">foreignOrDomestic &#160;&#160;&#160;&#160;&#160;&#160;&#160;&#160;&#160;&#160;&#160;&#160;&#160;&#160;</text><text text-anchor="start" x="407" y="-109.7" font-family="Courier,monospace" font-weight="bold" font-size="6.00"> &#160;: string &#160;&#160;&#160;&#160;&#160;&#160;&#160;&#160;</text><text text-anchor="start" x="274" y="-103.7" font-family="Courier,monospace" font-weight="bold" font-size="6.00" fill="#8b0000"> &#45; </text><text text-anchor="start" x="286" y="-103.7" font-family="Courier,monospace" font-weight="bold" font-size="6.00">propertyLocation &#160;&#160;&#160;&#160;&#160;&#160;&#160;&#160;&#160;&#160;&#160;&#160;&#160;&#160;&#160;</text><text text-anchor="start" x="407" y="-103.7" font-family="Courier,monospace" font-weight="bold" font-size="6.00"> &#160;: string &#160;&#160;&#160;&#160;&#160;&#160;&#160;&#160;</text><text text-anchor="start" x="274" y="-97.7" font-family="Courier,monospace" font-weight="bold" font-size="6.00" fill="#8b0000"> &#45; </text><text text-anchor="start" x="286" y="-97.7" font-family="Courier,monospace" font-weight="bold" font-size="6.00">ownerOccupiedOrInvestment &#160;&#160;&#160;&#160;&#160;&#160;</text><text text-anchor="start" x="407" y="-97.7" font-family="Courier,monospace" font-weight="bold" font-size="6.00"> &#160;: string &#160;&#160;&#160;&#160;&#160;&#160;&#160;&#160;</text><text text-anchor="start" x="274" y="-91.7" font-family="Courier,monospace" font-weight="bold" font-size="6.00" fill="#8b0000"> &#45; </text><text text-anchor="start" x="286" y="-91.7" font-family="Courier,monospace" font-weight="bold" font-size="6.00">residentOrNonResident &#160;&#160;&#160;&#160;&#160;&#160;&#160;&#160;&#160;&#160;</text><text text-anchor="start" x="407" y="-91.7" font-family="Courier,monospace" font-weight="bold" font-size="6.00"> &#160;: string &#160;&#160;&#160;&#160;&#160;&#160;&#160;&#160;</text><text text-anchor="start" x="274" y="-85.7" font-family="Courier,monospace" font-weight="bold" font-size="6.00" fill="#8b0000"> &#45; </text><text text-anchor="start" x="286" y="-85.7" font-family="Courier,monospace" font-weight="bold" font-size="6.00">TypeOfFundingCommitmentDimension</text><text text-anchor="start" x="407" y="-85.7" font-family="Courier,monospace" font-weight="bold" font-size="6.00"> &#160;: string &#160;&#160;&#160;&#160;&#160;&#160;&#160;&#160;</text><text text-anchor="start" x="274" y="-79.7" font-family="Courier,monospace" font-size="6.00" fill="#8b0000"> &#45; </text><text text-anchor="start" x="286" y="-79.7" font-family="Courier,monospace" font-size="6.00">BorrowerAccepted &#160;&#160;&#160;&#160;&#160;&#160;&#160;&#160;&#160;&#160;&#160;&#160;&#160;&#160;&#160;</text><text text-anchor="start" x="407" y="-79.7" font-family="Courier,monospace" font-weight="bold" font-size="6.00"> &#160;: float &#160;&#160;&#160;&#160;&#160;&#160;&#160;&#160;&#160;</text><text text-anchor="start" x="274" y="-73.7" font-family="Courier,monospace" font-size="6.00" fill="#8b0000"> &#45; </text><text text-anchor="start" x="286" y="-73.7" font-family="Courier,monospace" font-size="6.00">loanApplicatoin &#160;&#160;&#160;&#160;&#160;&#160;&#160;&#160;&#160;&#160;&#160;&#160;&#160;&#160;&#160;&#160;</text><text text-anchor="start" x="407" y="-73.7" font-family="Courier,monospace" font-weight="bold" font-size="6.00"> &#160;: LoanApplication</text></g><!-- BorrowerCommitments&#45;&gt;Lodgement --><g id="edge2" class="edge"><title>BorrowerCommitments&#45;&gt;Lodgement</title><path fill="none" stroke="black" d="M376,-142.147C376,-146.714 376,-151.384 376,-155.964"/><polygon fill="black" stroke="black" points="376,-156.168 379.2,-160.968 376,-165.768 372.8,-160.968 376,-156.168"/></g><!-- FirstHomeBorrowerCommitments --><g id="node4" class="node"><title>FirstHomeBorrowerCommitments</title><polygon fill="#68afcb" stroke="none" points="560,-122.5 560,-137.5 771,-137.5 771,-122.5 560,-122.5"/><polygon fill="none" stroke="#68afcb" points="560,-122.5 560,-137.5 771,-137.5 771,-122.5 560,-122.5"/><text text-anchor="start" x="602" y="-128.1" font-family="Courier,monospace" font-size="8.00" fill="white">FirstHomeBorrowerCommitments</text><polygon fill="#dddddd" stroke="none" points="560,-68.5 560,-122.5 771,-122.5 771,-68.5 560,-68.5"/><polygon fill="none" stroke="#dddddd" points="560,-68.5 560,-122.5 771,-122.5 771,-68.5 560,-68.5"/><text text-anchor="start" x="563" y="-115.7" font-family="Courier,monospace" font-weight="bold" font-size="6.00" fill="#8b0000"> &#45; </text><text text-anchor="start" x="575" y="-115.7" font-family="Courier,monospace" font-weight="bold" font-size="6.00">ActivityStatusDimension &#160;&#160;&#160;&#160;&#160;&#160;&#160;&#160;</text><text text-anchor="start" x="696" y="-115.7" font-family="Courier,monospace" font-weight="bold" font-size="6.00"> &#160;: string &#160;&#160;&#160;&#160;&#160;&#160;&#160;&#160;</text><text text-anchor="start" x="563" y="-109.7" font-family="Courier,monospace" font-weight="bold" font-size="6.00" fill="#8b0000"> &#45; </text><text text-anchor="start" x="575" y="-109.7" font-family="Courier,monospace" font-weight="bold" font-size="6.00">foreignOrDomestic &#160;&#160;&#160;&#160;&#160;&#160;&#160;&#160;&#160;&#160;&#160;&#160;&#160;&#160;</text><text text-anchor="start" x="696" y="-109.7" font-family="Courier,monospace" font-weight="bold" font-size="6.00"> &#160;: string &#160;&#160;&#160;&#160;&#160;&#160;&#160;&#160;</text><text text-anchor="start" x="563" y="-103.7" font-family="Courier,monospace" font-weight="bold" font-size="6.00" fill="#8b0000"> &#45; </text><text text-anchor="start" x="575" y="-103.7" font-family="Courier,monospace" font-weight="bold" font-size="6.00">propertyLocation &#160;&#160;&#160;&#160;&#160;&#160;&#160;&#160;&#160;&#160;&#160;&#160;&#160;&#160;&#160;</text><text text-anchor="start" x="696" y="-103.7" font-family="Courier,monospace" font-weight="bold" font-size="6.00"> &#160;: string &#160;&#160;&#160;&#160;&#160;&#160;&#160;&#160;</text><text text-anchor="start" x="563" y="-97.7" font-family="Courier,monospace" font-weight="bold" font-size="6.00" fill="#8b0000"> &#45; </text><text text-anchor="start" x="575" y="-97.7" font-family="Courier,monospace" font-weight="bold" font-size="6.00">ownerOccupiedOrInvestment &#160;&#160;&#160;&#160;&#160;&#160;</text><text text-anchor="start" x="696" y="-97.7" font-family="Courier,monospace" font-weight="bold" font-size="6.00"> &#160;: string &#160;&#160;&#160;&#160;&#160;&#160;&#160;&#160;</text><text text-anchor="start" x="563" y="-91.7" font-family="Courier,monospace" font-weight="bold" font-size="6.00" fill="#8b0000"> &#45; </text><text text-anchor="start" x="575" y="-91.7" font-family="Courier,monospace" font-weight="bold" font-size="6.00">residentOrNonResident &#160;&#160;&#160;&#160;&#160;&#160;&#160;&#160;&#160;&#160;</text><text text-anchor="start" x="696" y="-91.7" font-family="Courier,monospace" font-weight="bold" font-size="6.00"> &#160;: string &#160;&#160;&#160;&#160;&#160;&#160;&#160;&#160;</text><text text-anchor="start" x="563" y="-85.7" font-family="Courier,monospace" font-weight="bold" font-size="6.00" fill="#8b0000"> &#45; </text><text text-anchor="start" x="575" y="-85.7" font-family="Courier,monospace" font-weight="bold" font-size="6.00">TypeOfFundingCommitmentDimension</text><text text-anchor="start" x="696" y="-85.7" font-family="Courier,monospace" font-weight="bold" font-size="6.00"> &#160;: string &#160;&#160;&#160;&#160;&#160;&#160;&#160;&#160;</text><text text-anchor="start" x="563" y="-79.7" font-family="Courier,monospace" font-size="6.00" fill="#8b0000"> &#45; </text><text text-anchor="start" x="575" y="-79.7" font-family="Courier,monospace" font-size="6.00">BorrowerAccepted &#160;&#160;&#160;&#160;&#160;&#160;&#160;&#160;&#160;&#160;&#160;&#160;&#160;&#160;&#160;</text><text text-anchor="start" x="696" y="-79.7" font-family="Courier,monospace" font-weight="bold" font-size="6.00"> &#160;: float &#160;&#160;&#160;&#160;&#160;&#160;&#160;&#160;&#160;</text><text text-anchor="start" x="563" y="-73.7" font-family="Courier,monospace" font-size="6.00" fill="#8b0000"> &#45; </text><text text-anchor="start" x="575" y="-73.7" font-family="Courier,monospace" font-size="6.00">loanApplicatoin &#160;&#160;&#160;&#160;&#160;&#160;&#160;&#160;&#160;&#160;&#160;&#160;&#160;&#160;&#160;&#160;</text><text text-anchor="start" x="696" y="-73.7" font-family="Courier,monospace" font-weight="bold" font-size="6.00"> &#160;: LoanApplication</text></g><!-- FirstHomeBorrowerCommitments&#45;&gt;Lodgement --><g id="edge3" class="edge"><title>FirstHomeBorrowerCommitments&#45;&gt;Lodgement</title><path fill="none" stroke="black" d="M551.194,-139.941C526.792,-147.541 501.164,-155.522 477.273,-162.962"/><polygon fill="black" stroke="black" points="477.024,-163.039 473.392,-167.522 467.858,-165.894 471.489,-161.411 477.024,-163.039"/></g><!-- LoanApplication --><g id="node5" class="node"><title>LoanApplication</title><polygon fill="#68afcb" stroke="none" points="260,-21.5 260,-36.5 493,-36.5 493,-21.5 260,-21.5"/><polygon fill="none" stroke="#68afcb" points="260,-21.5 260,-36.5 493,-36.5 493,-21.5 260,-21.5"/><text text-anchor="start" x="342.5" y="-27.1" font-family="Courier,monospace" font-size="8.00" fill="white">LoanApplication</text><polygon fill="#dddddd" stroke="none" points="260,-3.5 260,-21.5 493,-21.5 493,-3.5 260,-3.5"/><polygon fill="none" stroke="#dddddd" points="260,-3.5 260,-21.5 493,-21.5 493,-3.5 260,-3.5"/><text text-anchor="start" x="263" y="-14.7" font-family="Courier,monospace" font-size="6.00" fill="#8b0000"> &#45; </text><text text-anchor="start" x="275" y="-14.7" font-family="Courier,monospace" font-size="6.00">AssetsLoansAndReceivablesLendingFacilitiesCount </text><text text-anchor="start" x="456" y="-14.7" font-family="Courier,monospace" font-weight="bold" font-size="6.00"> &#160;: int &#160;</text><text text-anchor="start" x="263" y="-8.7" font-family="Courier,monospace" font-size="6.00" fill="#8b0000"> &#45; </text><text text-anchor="start" x="275" y="-8.7" font-family="Courier,monospace" font-size="6.00">AssetsLoansAndReceivablesLoanAccountSwitchAmount</text><text text-anchor="start" x="456" y="-8.7" font-family="Courier,monospace" font-weight="bold" font-size="6.00"> &#160;: float</text></g><!-- LoanApplication&#45;&gt;NewLoan --><g id="edge4" class="edge"><title>LoanApplication&#45;&gt;NewLoan</title><path fill="none" stroke="black" d="M309.54,-41.0046C278.645,-50.0717 241.137,-61.0794 206.441,-71.2618"/><polygon fill="black" stroke="black" points="206.426,-71.2664 202.721,-75.6886 197.214,-73.9698 200.919,-69.5476 206.426,-71.2664"/></g><!-- LoanApplication&#45;&gt;BorrowerCommitments --><g id="edge5" class="edge"><title>LoanApplication&#45;&gt;BorrowerCommitments</title><path fill="none" stroke="black" d="M376,-41.1078C376,-45.3334 376,-49.9768 376,-54.7594"/><polygon fill="black" stroke="black" points="376,-55.0828 379.2,-59.8828 376,-64.6828 372.8,-59.8827 376,-55.0828"/></g><!-- LoanApplication&#45;&gt;FirstHomeBorrowerCommitments --><g id="edge6" class="edge"><title>LoanApplication&#45;&gt;FirstHomeBorrowerCommitments</title><path fill="none" stroke="black" d="M445.59,-41.0046C474.597,-49.1345 509.171,-58.8247 542.197,-68.0811"/><polygon fill="black" stroke="black" points="542.221,-68.0879 547.707,-66.302 551.465,-70.6787 545.979,-72.4646 542.221,-68.0879"/></g></g></svg>